<svg width="20" height="20" viewBox="0 0 20 20" fill="none" xmlns="http://www.w3.org/2000/svg">
<g clip-path="url(#clip0)">
<path d="M11.5807 13.1483C11.0917 12.8071 10.5691 12.5291 10.0225 12.3167C10.7496 11.6559 11.2319 10.7301 11.3158 9.69374C12.4184 8.61938 13.8637 8.03039 15.4131 8.03039C16.6227 8.03039 17.784 8.39461 18.7719 9.08355C19.1259 9.33043 19.6126 9.24376 19.8595 8.88976C20.1062 8.53591 20.0196 8.049 19.6657 7.80227C19.1767 7.46108 18.6539 7.18322 18.1073 6.97066C18.9097 6.24145 19.4141 5.18997 19.4141 4.02298C19.4141 1.82617 17.627 0.0390625 15.4302 0.0390625C13.2335 0.0390625 11.4464 1.82617 11.4464 4.02298C11.4464 5.18524 11.9468 6.2329 12.7436 6.96181C12.6345 7.00378 12.526 7.04818 12.4186 7.09548C11.9297 7.31063 11.4701 7.57522 11.0427 7.88589C10.4532 6.4215 9.01816 5.38513 7.34534 5.38513C5.14868 5.38513 3.36142 7.17223 3.36142 9.36889C3.36142 10.5279 3.85901 11.5727 4.65155 12.3013C2.53257 13.0952 0.814429 14.8004 0.114967 16.9751C-0.116967 17.6962 0.00586646 18.461 0.452033 19.0733C0.898199 19.6855 1.58851 20.0366 2.34595 20.0366H9.14206C9.57342 20.0366 9.92315 19.6869 9.92315 19.2553C9.92315 18.824 9.57342 18.4743 9.14206 18.4743H2.34595C2.09342 18.4743 1.86332 18.3572 1.71454 18.1531C1.56577 17.9489 1.52488 17.6939 1.60209 17.4534C2.37418 15.0529 4.72891 13.3764 7.32825 13.3764C8.53766 13.3764 9.69915 13.7407 10.687 14.4296C11.0409 14.6765 11.5278 14.5897 11.7747 14.2358C12.0214 13.882 11.9347 13.3951 11.5807 13.1483ZM15.4302 1.60141C16.7655 1.60141 17.8518 2.68768 17.8518 4.02298C17.8518 5.35812 16.7655 6.44454 15.4302 6.44454C14.0951 6.44454 13.0086 5.35812 13.0086 4.02298C13.0086 2.68768 14.0951 1.60141 15.4302 1.60141ZM7.34534 6.94732C8.68063 6.94732 9.7669 8.03374 9.7669 9.36889C9.7669 10.7042 8.68063 11.7905 7.34534 11.7905C6.01004 11.7905 4.92377 10.7042 4.92377 9.36889C4.92377 8.03374 6.01004 6.94732 7.34534 6.94732ZM20 16.3261C20 16.7575 19.6503 17.1072 19.2188 17.1072H17.0707V19.2553C17.0707 19.6869 16.7209 20.0366 16.2896 20.0366C15.8581 20.0366 15.5083 19.6869 15.5083 19.2553V17.1072H13.3602C12.9288 17.1072 12.5791 16.7575 12.5791 16.3261C12.5791 15.8946 12.9288 15.5449 13.3602 15.5449H15.5083V13.3967C15.5083 12.9654 15.8581 12.6156 16.2896 12.6156C16.7209 12.6156 17.0707 12.9654 17.0707 13.3967V15.5449H19.2188C19.6503 15.5449 20 15.8946 20 16.3261Z" fill="black"/>
</g>
<defs>
<clipPath id="clip0">
<rect width="20" height="20" fill="white"/>
</clipPath>
</defs>
</svg>
