<svg width="141" height="35" viewBox="0 0 141 35" fill="none" xmlns="http://www.w3.org/2000/svg">
<path d="M43.448 18.448C44 18.448 44.396 18.568 44.636 18.808C44.9 19.048 45.032 19.36 45.032 19.744C45.032 20.368 44.84 20.92 44.456 21.4C44.096 21.88 43.52 22.132 42.728 22.156C40.832 22.18 39.128 22.036 37.616 21.724C35.936 25.3 33.908 28.276 31.532 30.652C29.18 33.004 26.852 34.18 24.548 34.18C22.436 34.18 20.852 33.064 19.796 30.832C18.74 28.576 18.14 25.564 17.996 21.796C16.556 25.972 14.924 29.08 13.1 31.12C11.3 33.16 9.38 34.18 7.34 34.18C5.036 34.18 3.296 32.752 2.12 29.896C0.944 27.016 0.356 23.152 0.356 18.304C0.356 14.776 0.668 10.9 1.292 6.676C1.46 5.476 1.76 4.648 2.192 4.192C2.648 3.712 3.356 3.472 4.316 3.472C5.036 3.472 5.588 3.628 5.972 3.94C6.38 4.252 6.584 4.828 6.584 5.668C6.584 5.836 6.56 6.16 6.512 6.64C5.792 11.56 5.432 15.748 5.432 19.204C5.432 22.42 5.708 24.904 6.26 26.656C6.812 28.408 7.556 29.284 8.492 29.284C9.332 29.284 10.34 28.408 11.516 26.656C12.716 24.88 13.904 22.264 15.08 18.808C16.256 15.328 17.252 11.188 18.068 6.388C18.26 5.284 18.608 4.528 19.112 4.12C19.64 3.688 20.348 3.472 21.236 3.472C21.98 3.472 22.52 3.64 22.856 3.976C23.216 4.288 23.396 4.768 23.396 5.416C23.396 5.8 23.372 6.1 23.324 6.316C22.652 10.228 22.316 14.14 22.316 18.052C22.316 20.716 22.4 22.84 22.568 24.424C22.76 26.008 23.108 27.22 23.612 28.06C24.14 28.876 24.896 29.284 25.88 29.284C27.032 29.284 28.316 28.42 29.732 26.692C31.148 24.94 32.444 22.768 33.62 20.176C32.156 19.264 31.052 18.088 30.308 16.648C29.564 15.184 29.192 13.504 29.192 11.608C29.192 9.712 29.48 8.116 30.056 6.82C30.656 5.5 31.46 4.516 32.468 3.868C33.5 3.22 34.64 2.896 35.888 2.896C37.424 2.896 38.636 3.448 39.524 4.552C40.436 5.656 40.892 7.168 40.892 9.088C40.892 11.8 40.304 14.812 39.128 18.124C40.352 18.34 41.792 18.448 43.448 18.448ZM32.828 11.356C32.828 13.708 33.584 15.448 35.096 16.576C36.032 13.888 36.5 11.668 36.5 9.916C36.5 8.908 36.368 8.176 36.104 7.72C35.84 7.24 35.48 7 35.024 7C34.376 7 33.848 7.384 33.44 8.152C33.032 8.896 32.828 9.964 32.828 11.356ZM57.5887 25.972C57.9007 25.972 58.1407 26.116 58.3087 26.404C58.5007 26.692 58.5967 27.088 58.5967 27.592C58.5967 28.552 58.3687 29.296 57.9127 29.824C57.0247 30.904 55.7647 31.9 54.1327 32.812C52.5247 33.724 50.7967 34.18 48.9487 34.18C46.4287 34.18 44.4727 33.496 43.0807 32.128C41.6887 30.76 40.9927 28.888 40.9927 26.512C40.9927 24.856 41.3407 23.32 42.0367 21.904C42.7327 20.464 43.6927 19.324 44.9167 18.484C46.1647 17.644 47.5687 17.224 49.1287 17.224C50.5207 17.224 51.6367 17.644 52.4767 18.484C53.3167 19.3 53.7367 20.416 53.7367 21.832C53.7367 23.488 53.1367 24.916 51.9367 26.116C50.7607 27.292 48.7567 28.228 45.9247 28.924C46.5247 30.028 47.6647 30.58 49.3447 30.58C50.4247 30.58 51.6487 30.208 53.0167 29.464C54.4087 28.696 55.6087 27.7 56.6167 26.476C56.9047 26.14 57.2287 25.972 57.5887 25.972ZM48.5167 20.752C47.6287 20.752 46.8727 21.268 46.2487 22.3C45.6487 23.332 45.3487 24.58 45.3487 26.044V26.116C46.7647 25.78 47.8807 25.276 48.6967 24.604C49.5127 23.932 49.9207 23.152 49.9207 22.264C49.9207 21.808 49.7887 21.448 49.5247 21.184C49.2847 20.896 48.9487 20.752 48.5167 20.752ZM71.7215 25.972C72.0335 25.972 72.2735 26.116 72.4415 26.404C72.6335 26.692 72.7295 27.088 72.7295 27.592C72.7295 28.552 72.5015 29.296 72.0455 29.824C71.1575 30.904 69.8975 31.9 68.2655 32.812C66.6575 33.724 64.9295 34.18 63.0815 34.18C60.5615 34.18 58.6055 33.496 57.2135 32.128C55.8215 30.76 55.1255 28.888 55.1255 26.512C55.1255 24.856 55.4735 23.32 56.1695 21.904C56.8655 20.464 57.8255 19.324 59.0495 18.484C60.2975 17.644 61.7015 17.224 63.2615 17.224C64.6535 17.224 65.7695 17.644 66.6095 18.484C67.4495 19.3 67.8695 20.416 67.8695 21.832C67.8695 23.488 67.2695 24.916 66.0695 26.116C64.8935 27.292 62.8895 28.228 60.0575 28.924C60.6575 30.028 61.7975 30.58 63.4775 30.58C64.5575 30.58 65.7815 30.208 67.1495 29.464C68.5415 28.696 69.7415 27.7 70.7495 26.476C71.0375 26.14 71.3615 25.972 71.7215 25.972ZM62.6495 20.752C61.7615 20.752 61.0055 21.268 60.3815 22.3C59.7815 23.332 59.4815 24.58 59.4815 26.044V26.116C60.8975 25.78 62.0135 25.276 62.8295 24.604C63.6455 23.932 64.0535 23.152 64.0535 22.264C64.0535 21.808 63.9215 21.448 63.6575 21.184C63.4175 20.896 63.0815 20.752 62.6495 20.752ZM90.6063 25.972C90.9183 25.972 91.1583 26.116 91.3263 26.404C91.5183 26.692 91.6143 27.088 91.6143 27.592C91.6143 28.552 91.3863 29.296 90.9303 29.824C89.8503 31.144 88.7583 32.2 87.6543 32.992C86.5503 33.784 85.2423 34.18 83.7303 34.18C81.8823 34.18 80.3943 33.652 79.2663 32.596C78.1383 31.54 77.5743 30.136 77.5743 28.384C77.5743 27.448 78.0543 26.776 79.0143 26.368C80.0703 25.912 80.8263 25.432 81.2823 24.928C81.7383 24.4 81.9663 23.764 81.9663 23.02C81.9663 22.588 81.8703 22.264 81.6783 22.048C81.5103 21.832 81.2943 21.724 81.0303 21.724C80.3823 21.724 79.6623 22.192 78.8703 23.128C78.1023 24.064 77.3823 25.276 76.7103 26.764C76.0383 28.228 75.5103 29.74 75.1263 31.3C74.8623 32.428 74.5503 33.196 74.1903 33.604C73.8543 33.988 73.3143 34.18 72.5703 34.18C71.8263 34.18 71.2743 33.916 70.9143 33.388C70.5783 32.836 70.3503 31.996 70.2303 30.868C70.1103 29.74 70.0503 28.084 70.0503 25.9C70.0503 22.204 70.4223 18.352 71.1663 14.344C71.9343 10.336 73.0503 6.976 74.5143 4.264C76.0023 1.528 77.7783 0.159998 79.8423 0.159998C80.9463 0.159998 81.8343 0.639998 82.5063 1.6C83.2023 2.536 83.5503 3.76 83.5503 5.272C83.5503 7.696 82.8423 10.216 81.4263 12.832C80.0103 15.424 77.7063 18.46 74.5143 21.94C74.4423 23.188 74.4063 24.472 74.4063 25.792C75.5583 22.792 76.8783 20.62 78.3663 19.276C79.8543 17.908 81.2463 17.224 82.5423 17.224C83.7423 17.224 84.7023 17.632 85.4223 18.448C86.1663 19.264 86.5383 20.272 86.5383 21.472C86.5383 22.792 86.2023 24.004 85.5303 25.108C84.8583 26.212 83.7063 27.196 82.0743 28.06C82.1703 28.708 82.4583 29.236 82.9383 29.644C83.4423 30.028 84.0423 30.22 84.7383 30.22C85.4823 30.22 86.2023 29.932 86.8983 29.356C87.5943 28.78 88.5063 27.82 89.6343 26.476C89.9223 26.14 90.2463 25.972 90.6063 25.972ZM79.0863 3.724C78.6543 3.724 78.1743 4.348 77.6463 5.596C77.1183 6.82 76.6023 8.488 76.0983 10.6C75.6183 12.688 75.2223 14.968 74.9103 17.44C76.3983 15.688 77.6223 13.78 78.5823 11.716C79.5663 9.652 80.0583 7.78 80.0583 6.1C80.0583 5.332 79.9743 4.744 79.8063 4.336C79.6383 3.928 79.3983 3.724 79.0863 3.724ZM104.768 25.972C105.08 25.972 105.32 26.116 105.488 26.404C105.68 26.692 105.776 27.088 105.776 27.592C105.776 28.552 105.548 29.296 105.092 29.824C104.204 30.904 102.944 31.9 101.312 32.812C99.7044 33.724 97.9764 34.18 96.1284 34.18C93.6084 34.18 91.6524 33.496 90.2604 32.128C88.8684 30.76 88.1724 28.888 88.1724 26.512C88.1724 24.856 88.5204 23.32 89.2164 21.904C89.9124 20.464 90.8724 19.324 92.0964 18.484C93.3444 17.644 94.7484 17.224 96.3084 17.224C97.7004 17.224 98.8164 17.644 99.6564 18.484C100.496 19.3 100.916 20.416 100.916 21.832C100.916 23.488 100.316 24.916 99.1164 26.116C97.9404 27.292 95.9364 28.228 93.1044 28.924C93.7044 30.028 94.8444 30.58 96.5244 30.58C97.6044 30.58 98.8284 30.208 100.196 29.464C101.588 28.696 102.788 27.7 103.796 26.476C104.084 26.14 104.408 25.972 104.768 25.972ZM95.6964 20.752C94.8084 20.752 94.0524 21.268 93.4284 22.3C92.8284 23.332 92.5284 24.58 92.5284 26.044V26.116C93.9444 25.78 95.0604 25.276 95.8764 24.604C96.6924 23.932 97.1004 23.152 97.1004 22.264C97.1004 21.808 96.9684 21.448 96.7044 21.184C96.4644 20.896 96.1284 20.752 95.6964 20.752ZM105.401 34.18C104.489 34.18 103.841 33.7 103.457 32.74C103.097 31.78 102.917 30.244 102.917 28.132C102.917 25.012 103.361 22.048 104.249 19.24C104.465 18.544 104.813 18.04 105.293 17.728C105.797 17.392 106.493 17.224 107.381 17.224C107.861 17.224 108.197 17.284 108.389 17.404C108.581 17.524 108.677 17.752 108.677 18.088C108.677 18.472 108.497 19.336 108.137 20.68C107.897 21.64 107.705 22.48 107.561 23.2C107.417 23.92 107.297 24.808 107.201 25.864C107.993 23.8 108.881 22.12 109.865 20.824C110.849 19.528 111.809 18.604 112.745 18.052C113.705 17.5 114.581 17.224 115.373 17.224C116.933 17.224 117.713 18.004 117.713 19.564C117.713 20.5 117.449 22.192 116.921 24.64C116.465 26.728 116.237 28.108 116.237 28.78C116.237 29.74 116.585 30.22 117.281 30.22C117.761 30.22 118.325 29.932 118.973 29.356C119.645 28.756 120.533 27.796 121.637 26.476C121.925 26.14 122.249 25.972 122.609 25.972C122.921 25.972 123.161 26.116 123.329 26.404C123.521 26.692 123.617 27.088 123.617 27.592C123.617 28.552 123.389 29.296 122.933 29.824C121.901 31.096 120.785 32.14 119.585 32.956C118.409 33.772 117.065 34.18 115.553 34.18C114.329 34.18 113.405 33.832 112.781 33.136C112.157 32.416 111.845 31.384 111.845 30.04C111.845 29.368 112.013 28.168 112.349 26.44C112.661 24.928 112.817 23.884 112.817 23.308C112.817 22.924 112.685 22.732 112.421 22.732C112.109 22.732 111.665 23.14 111.089 23.956C110.537 24.748 109.961 25.804 109.361 27.124C108.785 28.444 108.317 29.836 107.957 31.3C107.693 32.428 107.381 33.196 107.021 33.604C106.685 33.988 106.145 34.18 105.401 34.18ZM133.809 25.972C134.073 27.94 134.457 29.884 134.961 31.804C135.057 32.116 135.105 32.44 135.105 32.776C135.105 33.856 134.445 34.396 133.125 34.396C132.381 34.396 131.805 34.192 131.397 33.784C131.013 33.376 130.653 32.608 130.317 31.48L130.281 31.336C129.369 32.464 128.541 33.22 127.797 33.604C127.077 33.988 126.237 34.18 125.277 34.18C123.813 34.18 122.601 33.64 121.641 32.56C120.705 31.456 120.237 30.028 120.237 28.276C120.237 26.356 120.645 24.58 121.461 22.948C122.277 21.316 123.393 19.984 124.809 18.952C126.225 17.896 127.809 17.26 129.561 17.044C130.017 12.508 130.881 8.56 132.153 5.2C133.449 1.84 135.165 0.159998 137.301 0.159998C138.333 0.159998 139.185 0.627998 139.857 1.564C140.553 2.5 140.901 3.916 140.901 5.812C140.901 8.452 140.253 11.536 138.957 15.064C137.661 18.592 135.945 22.228 133.809 25.972ZM136.905 3.688C136.209 3.688 135.549 5.464 134.925 9.016C134.325 12.568 133.917 16.432 133.701 20.608C136.365 14.848 137.697 10.168 137.697 6.568C137.697 5.656 137.613 4.948 137.445 4.444C137.301 3.94 137.121 3.688 136.905 3.688ZM126.537 30.544C127.017 30.544 127.473 30.364 127.905 30.004C128.361 29.644 128.937 28.948 129.633 27.916C129.393 26.164 129.273 24.352 129.273 22.48C129.273 21.736 129.285 21.16 129.309 20.752C127.989 21.136 126.897 22.012 126.033 23.38C125.169 24.748 124.737 26.26 124.737 27.916C124.737 29.668 125.337 30.544 126.537 30.544Z" fill="url(#paint0_linear)"/>
<defs>
<linearGradient id="paint0_linear" x1="69" y1="36.5" x2="69" y2="-27.25" gradientUnits="userSpaceOnUse">
<stop stop-color="#B60F46"/>
<stop offset="1" stop-color="#D592FF"/>
</linearGradient>
</defs>
</svg>
