<svg width="40" height="40" viewBox="0 0 40 40" fill="none" xmlns="http://www.w3.org/2000/svg">
<g clip-path="url(#clip0)">
<path d="M10.1596 33.0695C13.5597 33.0658 16.315 30.3106 16.3187 26.9104V15.5101L38.3409 11.0491V29.8201C36.3528 27.4818 32.9503 26.9576 30.3506 28.589C27.7513 30.2199 26.7431 33.5118 27.9835 36.3188C29.2235 39.1258 32.3364 40.5971 35.2928 39.7731C38.2488 38.9496 40.1523 36.0805 39.7622 33.0366V3.08C39.7622 2.15605 39.3477 1.28067 38.6324 0.695857C37.9171 0.110577 36.977 -0.122147 36.0715 0.0610714L17.3657 3.85035C15.9319 4.14461 14.9015 5.40447 14.8978 6.86836V22.98C13.0726 20.7804 9.97358 20.1258 7.415 21.399C4.85597 22.6728 3.50959 25.5395 4.16427 28.322C4.81849 31.1045 7.30165 33.0709 10.16 33.0699L10.1596 33.0695ZM33.6531 38.5461C31.1255 38.5466 29.0431 36.5622 28.9209 34.0378C28.7988 31.513 30.68 29.3371 33.1955 29.0928C35.7115 28.849 37.9759 30.6229 38.3409 33.1241V33.7084C38.3414 33.794 38.3571 33.8791 38.3872 33.9592C38.3039 36.5141 36.2098 38.5429 33.6531 38.5461ZM16.3191 6.86882C16.321 6.08043 16.8757 5.40215 17.6479 5.24346L36.3537 1.45464C36.8414 1.35563 37.3476 1.48101 37.7325 1.79609C38.1179 2.11117 38.3409 2.58217 38.3409 3.08V9.59905L16.3191 14.0601V6.86882ZM10.16 22.1726C12.7764 22.1726 14.8978 24.2935 14.8978 26.9104C14.8978 29.5268 12.7764 31.6481 10.16 31.6481C7.54316 31.6481 5.42228 29.5268 5.42228 26.9104C5.42505 24.2949 7.54455 22.1754 10.1596 22.1726H10.16Z" fill="#B60F46"/>
</g>
<defs>
<clipPath id="clip0">
<rect width="40" height="40" fill="white"/>
</clipPath>
</defs>
</svg>
