<svg width="20" height="20" viewBox="0 0 20 20" fill="none" xmlns="http://www.w3.org/2000/svg">
<g clip-path="url(#clip0)">
<path d="M5.07979 16.5347C6.77987 16.5329 8.15748 15.1553 8.15933 13.4552V7.75507L19.1705 5.52453V14.9101C18.1764 13.7409 16.4752 13.4788 15.1753 14.2945C13.8756 15.1099 13.3716 16.7559 13.9918 18.1594C14.6117 19.5629 16.1682 20.2986 17.6464 19.8866C19.1244 19.4748 20.0761 18.0403 19.8811 16.5183V1.54C19.8811 1.07802 19.6738 0.640337 19.3162 0.347929C18.9586 0.0552887 18.4885 -0.0610733 18.0358 0.0305357L8.68284 1.92518C7.96593 2.07231 7.45075 2.70223 7.4489 3.43418V11.49C6.53628 10.3902 4.98679 10.0629 3.7075 10.6995C2.42798 11.3364 1.7548 12.7697 2.08214 14.161C2.40925 15.5522 3.65082 16.5354 5.08002 16.535L5.07979 16.5347ZM16.8266 19.2731C15.5628 19.2733 14.5215 18.2811 14.4605 17.0189C14.3994 15.7565 15.34 14.6685 16.5978 14.5464C17.8558 14.4245 18.9879 15.3114 19.1705 16.562V16.8542C19.1707 16.897 19.1786 16.9396 19.1936 16.9796C19.1519 18.257 18.1049 19.2714 16.8266 19.2731ZM8.15956 3.43441C8.16049 3.04022 8.43786 2.70108 8.82396 2.62173L18.1769 0.727319C18.4207 0.677814 18.6738 0.740506 18.8662 0.898045C19.059 1.05559 19.1705 1.29109 19.1705 1.54V4.79952L8.15956 7.03007V3.43441ZM5.08002 11.0863C6.38822 11.0863 7.4489 12.1468 7.4489 13.4552C7.4489 14.7634 6.38822 15.8241 5.08002 15.8241C3.77158 15.8241 2.71114 14.7634 2.71114 13.4552C2.71253 12.1474 3.77228 11.0877 5.07979 11.0863H5.08002Z" fill="black"/>
</g>
<defs>
<clipPath id="clip0">
<rect width="20" height="20" fill="white"/>
</clipPath>
</defs>
</svg>
