<svg width="40" height="40" viewBox="0 0 40 40" fill="none" xmlns="http://www.w3.org/2000/svg">
<g clip-path="url(#clip0)">
<path d="M38.6692 9.16349C37.8707 8.32699 36.7681 7.83269 35.5133 7.83269H29.2015V7.75664C29.2015 6.80607 28.8213 5.89353 28.1749 5.28516C27.5285 4.63878 26.654 4.25855 25.7034 4.25855H14.2966C13.308 4.25855 12.4335 4.63878 11.7871 5.28516C11.1407 5.93155 10.7605 6.80607 10.7605 7.75664V7.83269H4.48669C3.23194 7.83269 2.12928 8.32699 1.3308 9.16349C0.532319 9.96197 0 11.1026 0 12.3194V31.2547C0 32.5095 0.494297 33.6121 1.3308 34.4106C2.12928 35.2091 3.26996 35.7414 4.48669 35.7414H35.5133C36.7681 35.7414 37.8707 35.2471 38.6692 34.4106C39.4677 33.6121 40 32.4714 40 31.2547V12.3194C40 11.0646 39.5057 9.96197 38.6692 9.16349ZM38.0228 31.2547H37.9848C37.9848 31.9391 37.7186 32.5475 37.2624 33.0038C36.8061 33.46 36.1977 33.7262 35.5133 33.7262H4.48669C3.80228 33.7262 3.19392 33.46 2.73764 33.0038C2.28137 32.5475 2.01521 31.9391 2.01521 31.2547V12.3194C2.01521 11.635 2.28137 11.0266 2.73764 10.5703C3.19392 10.1141 3.80228 9.8479 4.48669 9.8479H11.8251C12.3954 9.8479 12.8517 9.39162 12.8517 8.82128V7.71862C12.8517 7.30037 13.0038 6.92014 13.27 6.65398C13.5361 6.38782 13.9164 6.23573 14.3346 6.23573H25.7034C26.1217 6.23573 26.5019 6.38782 26.7681 6.65398C27.0342 6.92014 27.1863 7.30037 27.1863 7.71862V8.82128C27.1863 9.39162 27.6426 9.8479 28.2129 9.8479H35.5513C36.2357 9.8479 36.8441 10.1141 37.3004 10.5703C37.7567 11.0266 38.0228 11.635 38.0228 12.3194V31.2547Z" fill="#B60F46"/>
<path d="M20.0001 12.4335C17.4145 12.4335 15.0571 13.4981 13.3841 15.1711C11.6731 16.8821 10.6465 19.2015 10.6465 21.7871C10.6465 24.3726 11.7111 26.73 13.3841 28.403C15.0952 30.1141 17.4145 31.1407 20.0001 31.1407C22.5857 31.1407 24.9431 30.076 26.6161 28.403C28.3271 26.692 29.3537 24.3726 29.3537 21.7871C29.3537 19.2015 28.2891 16.8441 26.6161 15.1711C24.9431 13.4981 22.5857 12.4335 20.0001 12.4335ZM25.1712 26.9962C23.8404 28.289 22.0153 29.1255 20.0001 29.1255C17.9849 29.1255 16.1598 28.289 14.829 26.9962C13.4982 25.6654 12.6997 23.8403 12.6997 21.8251C12.6997 19.8099 13.5362 17.9848 14.829 16.654C16.1598 15.3232 17.9849 14.5247 20.0001 14.5247C22.0153 14.5247 23.8404 15.3612 25.1712 16.654C26.502 17.9848 27.3005 19.8099 27.3005 21.8251C27.3385 23.8403 26.502 25.6654 25.1712 26.9962Z" fill="#B60F46"/>
<path d="M33.5365 16.1217C34.5654 16.1217 35.3996 15.2875 35.3996 14.2585C35.3996 13.2296 34.5654 12.3954 33.5365 12.3954C32.5075 12.3954 31.6733 13.2296 31.6733 14.2585C31.6733 15.2875 32.5075 16.1217 33.5365 16.1217Z" fill="#B60F46"/>
</g>
<defs>
<clipPath id="clip0">
<rect width="40" height="40" fill="white"/>
</clipPath>
</defs>
</svg>
