<svg width="125" height="88" viewBox="0 0 125 88" fill="none" xmlns="http://www.w3.org/2000/svg">
<path d="M119.8 43.8C121.333 43.8 122.433 44.1333 123.1 44.8C123.833 45.4667 124.2 46.3333 124.2 47.4C124.2 49.1333 123.667 50.6667 122.6 52C121.6 53.3333 120 54.0333 117.8 54.1C112.533 54.1667 107.8 53.7667 103.6 52.9C98.9333 62.8333 93.3 71.1 86.7 77.7C80.1667 84.2333 73.7 87.5 67.3 87.5C61.4333 87.5 57.0333 84.4 54.1 78.2C51.1667 71.9333 49.5 63.5667 49.1 53.1C45.1 64.7 40.5667 73.3333 35.5 79C30.5 84.6667 25.1667 87.5 19.5 87.5C13.1 87.5 8.26667 83.5333 5 75.6C1.73333 67.6 0.100001 56.8667 0.100001 43.4C0.100001 33.6 0.966667 22.8333 2.7 11.1C3.16667 7.76666 4 5.46666 5.2 4.19999C6.46667 2.86666 8.43333 2.2 11.1 2.2C13.1 2.2 14.6333 2.63333 15.7 3.5C16.8333 4.36666 17.4 5.96666 17.4 8.29999C17.4 8.76666 17.3333 9.66666 17.2 11C15.2 24.6667 14.2 36.3 14.2 45.9C14.2 54.8333 14.9667 61.7333 16.5 66.6C18.0333 71.4667 20.1 73.9 22.7 73.9C25.0333 73.9 27.8333 71.4667 31.1 66.6C34.4333 61.6667 37.7333 54.4 41 44.8C44.2667 35.1333 47.0333 23.6333 49.3 10.3C49.8333 7.23333 50.8 5.13333 52.2 4C53.6667 2.8 55.6333 2.2 58.1 2.2C60.1667 2.2 61.6667 2.66666 62.6 3.59999C63.6 4.46666 64.1 5.8 64.1 7.6C64.1 8.66666 64.0333 9.49999 63.9 10.1C62.0333 20.9667 61.1 31.8333 61.1 42.7C61.1 50.1 61.3333 56 61.8 60.4C62.3333 64.8 63.3 68.1667 64.7 70.5C66.1667 72.7667 68.2667 73.9 71 73.9C74.2 73.9 77.7667 71.5 81.7 66.7C85.6333 61.8333 89.2333 55.8 92.5 48.6C88.4333 46.0667 85.3667 42.8 83.3 38.8C81.2333 34.7333 80.2 30.0667 80.2 24.8C80.2 19.5333 81 15.1 82.6 11.5C84.2667 7.83333 86.5 5.1 89.3 3.3C92.1667 1.5 95.3333 0.599998 98.8 0.599998C103.067 0.599998 106.433 2.13333 108.9 5.2C111.433 8.26667 112.7 12.4667 112.7 17.8C112.7 25.3333 111.067 33.7 107.8 42.9C111.2 43.5 115.2 43.8 119.8 43.8ZM90.3 24.1C90.3 30.6333 92.4 35.4667 96.6 38.6C99.2 31.1333 100.5 24.9667 100.5 20.1C100.5 17.3 100.133 15.2667 99.4 14C98.6667 12.6667 97.6667 12 96.4 12C94.6 12 93.1333 13.0667 92 15.2C90.8667 17.2667 90.3 20.2333 90.3 24.1Z" fill="url(#paint0_linear)"/>
<defs>
<linearGradient id="paint0_linear" x1="49" y1="94.2857" x2="49.0001" y2="-83.8095" gradientUnits="userSpaceOnUse">
<stop stop-color="#B60F46"/>
<stop offset="1" stop-color="#D592FF"/>
</linearGradient>
</defs>
</svg>
