<svg width="20" height="20" viewBox="0 0 20 20" fill="none" xmlns="http://www.w3.org/2000/svg">
<g clip-path="url(#clip0)">
<path d="M7.29163 14.6766V18.5416C7.29163 18.8116 7.46496 19.0508 7.72162 19.1358C7.78579 19.1566 7.85162 19.1666 7.91662 19.1666C8.11162 19.1666 8.29996 19.075 8.41995 18.9116L10.6808 15.835L7.29163 14.6766Z" fill="white"/>
<path d="M19.7375 0.115785C19.5458 -0.0200482 19.2942 -0.0383816 19.0858 0.0707851L0.33581 9.86245C0.114143 9.97829 -0.0166907 10.215 0.0016427 10.4641C0.0208094 10.7141 0.186643 10.9275 0.422476 11.0083L5.63498 12.79L16.7358 3.29829L8.14582 13.6475L16.8817 16.6333C16.9467 16.655 17.015 16.6666 17.0833 16.6666C17.1967 16.6666 17.3092 16.6358 17.4083 16.5758C17.5667 16.4791 17.6742 16.3166 17.7017 16.1341L19.9933 0.717452C20.0275 0.484118 19.9292 0.252452 19.7375 0.115785V0.115785Z" fill="white"/>
</g>
<defs>
<clipPath id="clip0">
<rect width="20" height="20" fill="white"/>
</clipPath>
</defs>
</svg>
