<svg width="20" height="20" viewBox="0 0 20 20" fill="none" xmlns="http://www.w3.org/2000/svg">
<g clip-path="url(#clip0)">
<path d="M10.0013 0C7.33035 0 4.8193 1.03934 2.93063 2.92656C-0.364919 6.21961 -0.853747 11.1812 1.33043 14.9715L0.0278933 19.1866C-0.112263 19.6401 0.319846 20.0644 0.771487 19.9153L4.86239 18.565C11.5363 22.5664 20.0008 17.7158 20.0008 9.99195C20.0008 4.46945 15.5285 0 10.0013 0V0ZM5.25379 17.4301C5.10512 17.3352 4.92176 17.3123 4.75453 17.3675L1.48274 18.4474L2.5268 15.0688C2.57645 14.908 2.55453 14.7337 2.46664 14.5903C-1.11511 8.7457 3.11309 1.17094 10.0013 1.17094C14.8689 1.17094 18.829 5.12805 18.829 9.99195C18.829 16.9542 11.0953 21.1603 5.25379 17.4301Z" fill="black"/>
<path d="M14.6877 7.06461H7.65682C7.33323 7.06461 7.07092 7.32672 7.07092 7.65008C7.07092 7.97344 7.33323 8.23555 7.65682 8.23555H14.6877C15.0113 8.23555 15.2736 7.97344 15.2736 7.65008C15.2736 7.32672 15.0113 7.06461 14.6877 7.06461Z" fill="black"/>
<path d="M12.3441 11.7483H5.31319C4.9896 11.7483 4.72729 12.0104 4.72729 12.3338C4.72729 12.6572 4.9896 12.9193 5.31319 12.9193H12.3441C12.6677 12.9193 12.93 12.6572 12.93 12.3338C12.93 12.0104 12.6677 11.7483 12.3441 11.7483Z" fill="black"/>
<path d="M14.6877 9.40648H5.31319C4.9896 9.40648 4.72729 9.66859 4.72729 9.99195C4.72729 10.3153 4.9896 10.5774 5.31319 10.5774H14.6877C15.0113 10.5774 15.2736 10.3153 15.2736 9.99195C15.2736 9.66859 15.0113 9.40648 14.6877 9.40648Z" fill="black"/>
<path d="M14.6878 12.9193C15.0114 12.9193 15.2737 12.6571 15.2737 12.3338C15.2737 12.0104 15.0114 11.7483 14.6878 11.7483C14.3642 11.7483 14.1019 12.0104 14.1019 12.3338C14.1019 12.6571 14.3642 12.9193 14.6878 12.9193Z" fill="black"/>
<path d="M5.31319 8.27457C5.63678 8.27457 5.89909 8.01245 5.89909 7.6891C5.89909 7.36576 5.63678 7.10363 5.31319 7.10363C4.98961 7.10363 4.72729 7.36576 4.72729 7.6891C4.72729 8.01245 4.98961 8.27457 5.31319 8.27457Z" fill="black"/>
</g>
<defs>
<clipPath id="clip0">
<rect width="20" height="20" fill="white"/>
</clipPath>
</defs>
</svg>
