<svg width="20" height="20" viewBox="0 0 20 20" fill="none" xmlns="http://www.w3.org/2000/svg">
<g clip-path="url(#clip0)">
<path d="M17.845 0H2.15484C0.966642 0 0 0.966795 0 2.15499V17.845C0 19.0333 0.966642 20 2.15484 20H17.845C19.0333 20 20 19.0333 20 17.845V2.15499C20 0.966795 19.0333 0 17.845 0V0ZM2.15484 1.17187H17.845C18.3871 1.17187 18.8281 1.61285 18.8281 2.15499V5.02089H1.17187V2.15499C1.17187 1.61285 1.61285 1.17187 2.15484 1.17187ZM17.845 18.8281H2.15484C1.61285 18.8281 1.17187 18.3871 1.17187 17.845V6.19277H18.8281V17.845C18.8281 18.3871 18.3871 18.8281 17.845 18.8281Z" fill="black"/>
<path d="M5.60669 3.68225H14.3932C14.7168 3.68225 14.9791 3.41995 14.9791 3.09631C14.9791 2.77283 14.7168 2.51038 14.3932 2.51038H5.60669C5.2832 2.51038 5.02075 2.77283 5.02075 3.09631C5.02075 3.41995 5.2832 3.68225 5.60669 3.68225Z" fill="black"/>
<path d="M3.09631 11.8411H5.60684C5.93033 11.8411 6.19278 11.5788 6.19278 11.2552V8.74481C6.19278 8.42117 5.93033 8.15887 5.60684 8.15887H3.09631C2.77283 8.15887 2.51038 8.42117 2.51038 8.74481V11.2552C2.51038 11.5788 2.77267 11.8411 3.09631 11.8411ZM3.68225 9.33075H5.0209V10.6693H3.68225V9.33075Z" fill="black"/>
<path d="M16.9038 10.6693H8.11731C7.79367 10.6693 7.53137 10.9317 7.53137 11.2552C7.53137 11.5788 7.79367 11.8411 8.11731 11.8411H16.9038C17.2273 11.8411 17.4897 11.5788 17.4897 11.2552C17.4897 10.9317 17.2273 10.6693 16.9038 10.6693Z" fill="black"/>
<path d="M16.9037 13.1798H3.09631C2.77283 13.1798 2.51038 13.4421 2.51038 13.7657C2.51038 14.0892 2.77283 14.3517 3.09631 14.3517H16.9037C17.2272 14.3517 17.4896 14.0892 17.4896 13.7657C17.4896 13.4421 17.2272 13.1798 16.9037 13.1798Z" fill="black"/>
<path d="M16.9037 15.6902H3.09631C2.77283 15.6902 2.51038 15.9525 2.51038 16.2761C2.51038 16.5997 2.77283 16.862 3.09631 16.862H16.9037C17.2272 16.862 17.4896 16.5997 17.4896 16.2761C17.4896 15.9525 17.2272 15.6902 16.9037 15.6902Z" fill="black"/>
<path d="M16.9038 8.15887H8.11731C7.79367 8.15887 7.53137 8.42117 7.53137 8.74481C7.53137 9.06845 7.79367 9.33075 8.11731 9.33075H16.9038C17.2273 9.33075 17.4897 9.06845 17.4897 8.74481C17.4897 8.42117 17.2273 8.15887 16.9038 8.15887Z" fill="black"/>
</g>
<defs>
<clipPath id="clip0">
<rect width="20" height="20" fill="white"/>
</clipPath>
</defs>
</svg>
