<svg width="20" height="20" viewBox="0 0 20 20" fill="none" xmlns="http://www.w3.org/2000/svg">
<g clip-path="url(#clip0)">
<path d="M19.3346 4.58174C18.9354 4.16349 18.384 3.91634 17.7567 3.91634H14.6008V3.87832C14.6008 3.40304 14.4106 2.94676 14.0875 2.64258C13.7643 2.31939 13.327 2.12927 12.8517 2.12927H7.14829C6.65399 2.12927 6.21673 2.31939 5.89354 2.64258C5.57034 2.96577 5.38023 3.40304 5.38023 3.87832V3.91634H2.24335C1.61597 3.91634 1.06464 4.16349 0.665399 4.58174C0.26616 4.98098 0 5.55132 0 6.15969V15.6274C0 16.2547 0.247148 16.8061 0.665399 17.2053C1.06464 17.6045 1.63498 17.8707 2.24335 17.8707H17.7567C18.384 17.8707 18.9354 17.6236 19.3346 17.2053C19.7338 16.8061 20 16.2357 20 15.6274V6.15969C20 5.53231 19.7529 4.98098 19.3346 4.58174ZM19.0114 15.6274H18.9924C18.9924 15.9696 18.8593 16.2737 18.6312 16.5019C18.403 16.73 18.0989 16.8631 17.7567 16.8631H2.24335C1.90114 16.8631 1.59696 16.73 1.36882 16.5019C1.14068 16.2737 1.0076 15.9696 1.0076 15.6274V6.15969C1.0076 5.81748 1.14068 5.5133 1.36882 5.28516C1.59696 5.05703 1.90114 4.92395 2.24335 4.92395H5.91255C6.19772 4.92395 6.42586 4.69581 6.42586 4.41064V3.85931C6.42586 3.65018 6.5019 3.46007 6.63498 3.32699C6.76806 3.19391 6.95818 3.11786 7.1673 3.11786H12.8517C13.0608 3.11786 13.251 3.19391 13.384 3.32699C13.5171 3.46007 13.5932 3.65018 13.5932 3.85931V4.41064C13.5932 4.69581 13.8213 4.92395 14.1065 4.92395H17.7757C18.1179 4.92395 18.4221 5.05703 18.6502 5.28516C18.8783 5.5133 19.0114 5.81748 19.0114 6.15969V15.6274Z" fill="black"/>
<path d="M10.0001 6.21672C8.70727 6.21672 7.52857 6.74904 6.69206 7.58554C5.83655 8.44106 5.32324 9.60075 5.32324 10.8935C5.32324 12.1863 5.85556 13.365 6.69206 14.2015C7.54758 15.057 8.70727 15.5703 10.0001 15.5703C11.2928 15.5703 12.4715 15.038 13.308 14.2015C14.1636 13.346 14.6769 12.1863 14.6769 10.8935C14.6769 9.60075 14.1445 8.42204 13.308 7.58554C12.4715 6.74904 11.2928 6.21672 10.0001 6.21672ZM12.5856 13.4981C11.9202 14.1445 11.0077 14.5627 10.0001 14.5627C8.99245 14.5627 8.0799 14.1445 7.4145 13.4981C6.7491 12.8327 6.34986 11.9201 6.34986 10.9125C6.34986 9.90493 6.76811 8.99239 7.4145 8.32699C8.0799 7.66159 8.99245 7.26235 10.0001 7.26235C11.0077 7.26235 11.9202 7.6806 12.5856 8.32699C13.251 8.99239 13.6502 9.90493 13.6502 10.9125C13.6693 11.9201 13.251 12.8327 12.5856 13.4981Z" fill="black"/>
<path d="M16.7681 8.06083C17.2826 8.06083 17.6997 7.64375 17.6997 7.12927C17.6997 6.61478 17.2826 6.19771 16.7681 6.19771C16.2536 6.19771 15.8365 6.61478 15.8365 7.12927C15.8365 7.64375 16.2536 8.06083 16.7681 8.06083Z" fill="black"/>
</g>
<defs>
<clipPath id="clip0">
<rect width="20" height="20" fill="white"/>
</clipPath>
</defs>
</svg>
