<svg width="20" height="21" viewBox="0 0 20 21" fill="none" xmlns="http://www.w3.org/2000/svg">
<g clip-path="url(#clip0)">
<path d="M10.0013 0.490906C7.33035 0.490906 4.8193 1.53024 2.93063 3.41747C-0.364919 6.71052 -0.853747 11.6721 1.33043 15.4624L0.0278933 19.6775C-0.112263 20.131 0.319846 20.5553 0.771487 20.4062L4.86239 19.0559C11.5363 23.0573 20.0008 18.2067 20.0008 10.4829C20.0008 4.96036 15.5285 0.490906 10.0013 0.490906V0.490906ZM5.25379 17.921C5.10512 17.8261 4.92176 17.8032 4.75453 17.8584L1.48274 18.9383L2.5268 15.5597C2.57645 15.399 2.55453 15.2246 2.46664 15.0812C-1.11511 9.23661 3.11309 1.66184 10.0013 1.66184C14.8689 1.66184 18.829 5.61895 18.829 10.4829C18.829 17.4451 11.0953 21.6512 5.25379 17.921Z" fill="#C4C4C4"/>
<path d="M14.6877 7.55554H7.65682C7.33323 7.55554 7.07092 7.81765 7.07092 8.14101C7.07092 8.46437 7.33323 8.72648 7.65682 8.72648H14.6877C15.0113 8.72648 15.2736 8.46437 15.2736 8.14101C15.2736 7.81765 15.0113 7.55554 14.6877 7.55554Z" fill="#C4C4C4"/>
<path d="M12.3441 12.2392H5.31319C4.9896 12.2392 4.72729 12.5013 4.72729 12.8247C4.72729 13.148 4.9896 13.4101 5.31319 13.4101H12.3441C12.6677 13.4101 12.93 13.148 12.93 12.8247C12.93 12.5013 12.6677 12.2392 12.3441 12.2392Z" fill="#C4C4C4"/>
<path d="M14.6877 9.8974H5.31319C4.9896 9.8974 4.72729 10.1595 4.72729 10.4829C4.72729 10.8062 4.9896 11.0683 5.31319 11.0683H14.6877C15.0113 11.0683 15.2736 10.8062 15.2736 10.4829C15.2736 10.1595 15.0113 9.8974 14.6877 9.8974Z" fill="#C4C4C4"/>
<path d="M14.6878 13.4101C15.0114 13.4101 15.2737 13.148 15.2737 12.8247C15.2737 12.5013 15.0114 12.2392 14.6878 12.2392C14.3642 12.2392 14.1019 12.5013 14.1019 12.8247C14.1019 13.148 14.3642 13.4101 14.6878 13.4101Z" fill="#C4C4C4"/>
<path d="M5.31319 8.76548C5.63678 8.76548 5.89909 8.50336 5.89909 8.18001C5.89909 7.85667 5.63678 7.59454 5.31319 7.59454C4.98961 7.59454 4.72729 7.85667 4.72729 8.18001C4.72729 8.50336 4.98961 8.76548 5.31319 8.76548Z" fill="#C4C4C4"/>
</g>
<defs>
<clipPath id="clip0">
<rect width="20" height="20" fill="white" transform="translate(0 0.490906)"/>
</clipPath>
</defs>
</svg>
