<svg width="40" height="40" viewBox="0 0 40 40" fill="none" xmlns="http://www.w3.org/2000/svg">
<path d="M39.5849 9.62096C39.3273 9.46835 39.0089 9.46239 38.746 9.60573L29.5683 14.617V11.6102C29.5657 9.27105 27.6702 7.37553 25.331 7.37288H4.23729C1.89817 7.37553 0.00264831 9.27105 0 11.6102V28.3408C0.00264831 30.68 1.89817 32.5755 4.23729 32.5781H25.331C27.6702 32.5755 29.5657 30.68 29.5683 28.3408V25.3886L38.7464 30.3999C39.0089 30.5432 39.3277 30.5376 39.5849 30.385C39.8424 30.2321 40 29.955 40 29.6561V10.3496C40 10.0503 39.8421 9.77357 39.5849 9.62096ZM27.8727 28.3412C27.8714 29.7448 26.734 30.8819 25.3304 30.8835H4.23729C2.83369 30.8819 1.69657 29.7448 1.69492 28.3412V11.6102C1.69657 10.2069 2.83369 9.06945 4.23729 9.06779H25.331C26.7343 9.06945 27.8718 10.2069 27.8734 11.6102L27.8727 28.3412ZM38.3051 28.228L29.5683 23.4577V16.5479L38.3051 11.778V28.228Z" fill="#B60F46"/>
</svg>
