<svg width="20" height="20" viewBox="0 0 20 20" fill="none" xmlns="http://www.w3.org/2000/svg">
<path d="M19.7924 4.81047C19.6637 4.73417 19.5044 4.73119 19.373 4.80286L14.7842 7.30849V5.80508C14.7828 4.63552 13.8351 3.68776 12.6655 3.68643H2.11864C0.949086 3.68776 0.00132415 4.63552 0 5.80508V14.1704C0.00132415 15.34 0.949086 16.2877 2.11864 16.2891H12.6655C13.8351 16.2877 14.7828 15.34 14.7842 14.1704V12.6943L19.3732 15.1999C19.5044 15.2716 19.6638 15.2688 19.7924 15.1925C19.9212 15.116 20 14.9775 20 14.828V5.17478C20 5.02515 19.921 4.88678 19.7924 4.81047ZM13.9364 14.1706C13.9357 14.8724 13.367 15.4409 12.6652 15.4418H2.11864C1.41684 15.4409 0.848285 14.8724 0.847458 14.1706V5.80508C0.848285 5.10344 1.41684 4.53472 2.11864 4.53389H12.6655C13.3672 4.53472 13.9359 5.10344 13.9367 5.80508L13.9364 14.1706ZM19.1525 14.114L14.7842 11.7288V8.27396L19.1525 5.88899V14.114Z" fill="black"/>
</svg>
